<svg xmlns="http://www.w3.org/2000/svg" viewBox="0 0 64 64" width="64" height="64">
  <!-- Background -->
  <rect width="64" height="64" fill="#4A90D9"/>
  
  <!-- Face base -->
  <rect x="16" y="12" width="32" height="40" fill="#F5D0A9"/>
  
  <!-- Hair -->
  <rect x="12" y="8" width="40" height="12" fill="#4A3728"/>
  <rect x="12" y="8" width="8" height="20" fill="#4A3728"/>
  <rect x="44" y="8" width="8" height="20" fill="#4A3728"/>
  
  <!-- Beard -->
  <rect x="16" y="36" width="32" height="16" fill="#4A3728"/>
  <rect x="12" y="32" width="8" height="20" fill="#4A3728"/>
  <rect x="44" y="32" width="8" height="20" fill="#4A3728"/>
  <rect x="20" y="48" width="24" height="8" fill="#4A3728"/>
  
  <!-- Glasses frame -->
  <rect x="14" y="22" width="16" height="12" fill="#333"/>
  <rect x="34" y="22" width="16" height="12" fill="#333"/>
  <rect x="30" y="26" width="4" height="4" fill="#333"/>
  
  <!-- Glasses lenses -->
  <rect x="16" y="24" width="12" height="8" fill="#87CEEB"/>
  <rect x="36" y="24" width="12" height="8" fill="#87CEEB"/>
  
  <!-- Eyes -->
  <rect x="18" y="26" width="4" height="4" fill="#000"/>
  <rect x="38" y="26" width="4" height="4" fill="#000"/>
  
  <!-- Nose -->
  <rect x="28" y="32" width="8" height="6" fill="#E8B896"/>
  
  <!-- Mouth (smile) -->
  <rect x="24" y="42" width="16" height="4" fill="#8B4513"/>
</svg>